<svg width="28" height="29" viewBox="0 0 28 29" fill="none" xmlns="http://www.w3.org/2000/svg">
<path d="M15 2.96838C12.7502 2.96838 10.551 3.63552 8.68039 4.88542C6.80978 6.13532 5.35182 7.91185 4.49088 9.99036C3.62993 12.0689 3.40467 14.356 3.84357 16.5625C4.28248 18.7691 5.36584 20.7959 6.95667 22.3867C8.54749 23.9775 10.5743 25.0609 12.7809 25.4998C14.9874 25.9387 17.2745 25.7135 19.353 24.8525C21.4315 23.9916 23.2081 22.5336 24.458 20.663C25.7079 18.7924 26.375 16.5931 26.375 14.3434C26.3718 11.3275 25.1724 8.4361 23.0398 6.30356C20.9073 4.17103 18.0159 2.97157 15 2.96838ZM9.10251 21.9449C9.7355 20.955 10.6075 20.1403 11.6382 19.5759C12.6688 19.0116 13.825 18.7158 15 18.7158C16.175 18.7158 17.3312 19.0116 18.3618 19.5759C19.3925 20.1403 20.2645 20.955 20.8975 21.9449C19.2113 23.2563 17.1361 23.9683 15 23.9683C12.8639 23.9683 10.7887 23.2563 9.10251 21.9449ZM11.5 13.4684C11.5 12.7761 11.7053 12.0995 12.0899 11.5239C12.4744 10.9483 13.0211 10.4997 13.6606 10.2348C14.3002 9.9699 15.0039 9.90059 15.6828 10.0356C16.3618 10.1707 16.9854 10.504 17.4749 10.9935C17.9644 11.483 18.2977 12.1066 18.4328 12.7856C18.5678 13.4645 18.4985 14.1682 18.2336 14.8078C17.9687 15.4473 17.5201 15.9939 16.9445 16.3785C16.3689 16.7631 15.6922 16.9684 15 16.9684C14.0717 16.9684 13.1815 16.5996 12.5251 15.9433C11.8688 15.2869 11.5 14.3966 11.5 13.4684ZM22.1925 20.732C21.2166 19.3178 19.8444 18.2238 18.2484 17.5874C19.1057 16.9122 19.7313 15.9866 20.0382 14.9394C20.345 13.8921 20.3179 12.7753 19.9606 11.7441C19.6033 10.713 18.9336 9.81885 18.0445 9.18601C17.1554 8.55317 16.0913 8.21311 15 8.21311C13.9087 8.21311 12.8446 8.55317 11.9555 9.18601C11.0665 9.81885 10.3967 10.713 10.0394 11.7441C9.68209 12.7753 9.65497 13.8921 9.96183 14.9394C10.2687 15.9866 10.8943 16.9122 11.7516 17.5874C10.1556 18.2238 8.78338 19.3178 7.80751 20.732C6.57438 19.3453 5.7684 17.6317 5.48662 15.7975C5.20484 13.9634 5.45927 12.0869 6.21929 10.394C6.9793 8.70106 8.21249 7.26395 9.77035 6.25569C11.3282 5.24743 13.1443 4.711 15 4.711C16.8557 4.711 18.6718 5.24743 20.2297 6.25569C21.7875 7.26395 23.0207 8.70106 23.7807 10.394C24.5407 12.0869 24.7952 13.9634 24.5134 15.7975C24.2316 17.6317 23.4256 19.3453 22.1925 20.732Z" fill="#022841"/>
</svg>
