<svg width="28" height="27" viewBox="0 0 28 27" fill="none" xmlns="http://www.w3.org/2000/svg">
<path d="M27.2053 13.5231C27.2053 20.1794 22.2714 25.6824 15.8618 26.5754C15.2625 26.6585 14.6493 26.7019 14.027 26.7019C13.3085 26.7019 12.603 26.6446 11.916 26.5338C5.64125 25.5235 0.848633 20.0825 0.848633 13.5231C0.848633 6.24433 6.74937 0.343384 14.0279 0.343384C21.3064 0.343384 27.2071 6.24433 27.2071 13.5231H27.2053Z" fill="#011724"/>
<path d="M15.681 12.3746V14.9846H18.9096L18.3984 18.5005H15.681V26.601C15.1362 26.6765 14.5787 26.716 14.0129 26.716C13.3598 26.716 12.7184 26.6639 12.0939 26.5632V18.5005H9.11621V14.9846H12.0939V11.7911C12.0939 9.80984 13.6998 8.203 15.6818 8.203V8.20468C15.6877 8.20468 15.6927 8.203 15.6986 8.203H18.9105V11.2437H16.8118C16.188 11.2437 15.6818 11.75 15.6818 12.3737L15.681 12.3746Z" fill="white"/>
</svg>
