<svg width="28" height="29" viewBox="0 0 28 29" fill="none" xmlns="http://www.w3.org/2000/svg">
<path d="M19.25 23.9684C19.25 24.2004 19.1578 24.423 18.9937 24.5871C18.8296 24.7512 18.6071 24.8434 18.375 24.8434H2.62502C2.39295 24.8434 2.17039 24.7512 2.0063 24.5871C1.8422 24.423 1.75002 24.2004 1.75002 23.9684C1.75002 23.7363 1.8422 23.5138 2.0063 23.3497C2.17039 23.1856 2.39295 23.0934 2.62502 23.0934H18.375C18.6071 23.0934 18.8296 23.1856 18.9937 23.3497C19.1578 23.5138 19.25 23.7363 19.25 23.9684ZM27.1097 10.5317C27.0868 10.6534 27.0383 10.769 26.9674 10.8706C26.8965 10.9722 26.8048 11.0576 26.6985 11.1212L10.5755 20.7462C9.90341 21.1403 9.13865 21.3487 8.35955 21.3499C7.24973 21.3487 6.18235 20.9234 5.3758 20.161L5.36267 20.1479L1.42189 16.2903C1.21339 16.0923 1.05689 15.8459 0.966224 15.5731C0.87556 15.3002 0.85353 15.0092 0.90208 14.7258C0.95063 14.4424 1.06827 14.1753 1.24458 13.9482C1.4209 13.721 1.65047 13.5408 1.91299 13.4235L2.24111 13.2628C2.44833 13.161 2.68735 13.1453 2.90611 13.219L5.99705 14.2624L8.20314 12.9281L5.81548 10.6104C5.60076 10.4126 5.43894 10.1642 5.34477 9.88782C5.2506 9.61147 5.22706 9.31594 5.27631 9.02816C5.32556 8.74039 5.44603 8.4695 5.62674 8.24019C5.80745 8.01087 6.04266 7.83042 6.31095 7.71525L6.34595 7.70104L7.12798 7.40463C7.32516 7.33111 7.54222 7.33111 7.73939 7.40463L13.6391 9.57244L19.2795 6.20588C20.1784 5.67091 21.2398 5.47731 22.2696 5.66047C23.2995 5.84362 24.229 6.3913 24.8883 7.20338L24.9014 7.21979L26.9402 9.83275C27.0163 9.93059 27.0708 10.0435 27.1001 10.164C27.1293 10.2845 27.1326 10.4098 27.1097 10.5317ZM24.9506 10.127L23.5288 8.30369C23.133 7.81956 22.5767 7.49348 21.9609 7.38469C21.3452 7.27591 20.7108 7.39165 20.1731 7.71088L14.1794 11.2896C14.0671 11.3562 13.9415 11.397 13.8116 11.4091C13.6816 11.4212 13.5506 11.4043 13.428 11.3596L7.43752 9.15682L7.00002 9.32416L7.02298 9.34604L10.2342 12.4621C10.3301 12.5553 10.4034 12.6692 10.4484 12.7952C10.4934 12.9211 10.509 13.0556 10.4939 13.1885C10.4788 13.3214 10.4334 13.449 10.3613 13.5616C10.2892 13.6742 10.1922 13.7688 10.0778 13.8381L6.55486 15.9698C6.44588 16.0356 6.32384 16.0769 6.19727 16.0906C6.0707 16.1044 5.94265 16.0904 5.82205 16.0496L2.68627 14.992L2.66549 15.0029L2.62502 15.0215C2.63028 15.0253 2.63506 15.0297 2.63924 15.0346L6.57674 18.8912C6.98766 19.2773 7.51265 19.52 8.07304 19.5827C8.63344 19.6454 9.19906 19.5248 9.68517 19.239L24.9506 10.127Z" fill="#022841"/>
</svg>
