<svg width="27" height="27" viewBox="0 0 27 27" fill="none" xmlns="http://www.w3.org/2000/svg">
<path d="M13.4163 0.343384H13.3563C6.09414 0.343384 0.207031 6.2305 0.207031 13.4926V13.5526C0.207031 20.8148 6.09414 26.7019 13.3563 26.7019H13.4163C20.6784 26.7019 26.5655 20.8148 26.5655 13.5526V13.4926C26.5655 6.2305 20.6784 0.343384 13.4163 0.343384Z" fill="#011724"/>
<path d="M17.3277 5.92249H9.91309C7.86468 5.92249 6.19824 7.58892 6.19824 9.63734V16.4206C6.19824 18.469 7.86468 20.1355 9.91309 20.1355H17.3277C19.3761 20.1355 21.0425 18.469 21.0425 16.4206V9.63734C21.0425 7.58892 19.3761 5.92249 17.3277 5.92249ZM7.50873 9.63734C7.50873 8.31174 8.5875 7.23297 9.91309 7.23297H17.3277C18.6533 7.23297 19.7321 8.31174 19.7321 9.63734V16.4206C19.7321 17.7462 18.6533 18.825 17.3277 18.825H9.91309C8.5875 18.825 7.50873 17.7462 7.50873 16.4206V9.63734Z" fill="white"/>
<path d="M13.6205 16.4836C15.5253 16.4836 17.0759 14.9339 17.0759 13.0282C17.0759 11.1225 15.5262 9.57275 13.6205 9.57275C11.7148 9.57275 10.165 11.1225 10.165 13.0282C10.165 14.9339 11.7148 16.4836 13.6205 16.4836ZM13.6205 10.8841C14.8034 10.8841 15.7654 11.8462 15.7654 13.029C15.7654 14.2119 14.8034 15.174 13.6205 15.174C12.4376 15.174 11.4755 14.2119 11.4755 13.029C11.4755 11.8462 12.4376 10.8841 13.6205 10.8841Z" fill="white"/>
<path d="M17.3956 10.1311C17.9084 10.1311 18.3263 9.71385 18.3263 9.20007C18.3263 8.68628 17.9092 8.26904 17.3956 8.26904C16.882 8.26904 16.4648 8.68628 16.4648 9.20007C16.4648 9.71385 16.882 10.1311 17.3956 10.1311Z" fill="white"/>
</svg>
