<svg width="146" height="35" viewBox="0 0 146 35" fill="none" xmlns="http://www.w3.org/2000/svg">
<g clip-path="url(#clip0_59_2059)">
<path d="M0 34.3434H28.0406L44 0.343384H36.9552C33.7391 0.343384 30.6638 1.68119 28.4411 4.04807L0 34.3434Z" fill="url(#paint0_linear_59_2059)"/>
<path d="M0 34.3434H28.0406L44 0.343384H36.9552C33.7391 0.343384 30.6638 1.68119 28.4411 4.04807L0 34.3434Z" fill="url(#paint1_linear_59_2059)"/>
<path d="M26.4388 18.4169H23.1731L20.2703 21.8956V18.4391H17.6055V21.9965V22.0207H20.2208V22.0389L23.1731 25.5761H26.4388L23.4527 21.9965L26.4388 18.4169Z" fill="white"/>
<path d="M30.0597 19.2564L32.4054 16.4435V14.7546H30.5495L24.5654 21.9259V21.9683H27.7974V21.9663H32.4252V19.2564H30.0597Z" fill="white"/>
</g>
<path d="M69.9091 21.0617C68.8319 21.7748 67.4437 21.9695 65.6913 21.9695C63.939 21.9695 62.5382 21.7748 61.461 21.0491C60.2422 20.245 59.825 18.92 59.825 17.3371C59.825 15.7542 60.2396 14.4165 61.461 13.6124C62.5382 12.8993 63.9264 12.7173 65.6787 12.7173C67.431 12.7173 68.8319 12.912 69.9091 13.6124C71.1152 14.4292 71.5451 15.7668 71.5451 17.3371C71.5451 18.9073 71.1177 20.245 69.9091 21.0617ZM65.6913 14.5101C63.2765 14.5101 62.174 15.1852 62.174 17.2738C62.174 19.3625 63.2512 20.1792 65.6787 20.1792C68.1062 20.1792 69.196 19.4914 69.196 17.4028C69.196 15.3142 68.1188 14.5101 65.6913 14.5101Z" fill="white"/>
<path d="M83.6144 21.7874L78.4231 15.7289H78.3852V21.7874H76.2839V12.8994H78.9567L83.9659 18.9453H84.0164V12.8994H86.1051V21.7874H83.6144Z" fill="white"/>
<path d="M95.6303 21.9695C94.3584 21.9695 93.1269 21.7874 92.2166 21.0491C91.1521 20.1666 90.8411 18.8037 90.8411 17.3371C90.8411 16.0778 91.2052 14.5227 92.5934 13.5871C93.6832 12.8614 95.0841 12.7173 96.6164 12.7173C97.7973 12.7173 98.9781 12.783 100.301 12.8741V14.6896C99.1981 14.6112 97.7821 14.5455 96.758 14.5455C94.2547 14.5455 93.1902 15.299 93.1902 17.3876C93.1902 19.322 93.9159 20.2172 95.9034 20.2172C96.7327 20.2172 97.643 20.1388 98.5382 20.0098V18.4648H95.8907V16.8035H100.68V21.3828C99.0843 21.7065 97.3573 21.967 95.6328 21.967L95.6303 21.9695Z" fill="white"/>
<path d="M121.286 21.7874L120.325 19.853H115.407L114.471 21.7874H111.993L116.56 12.8994H119.298L123.865 21.7874H121.283H121.286ZM117.885 14.8337H117.834L116.198 18.169H119.521L117.885 14.8337Z" fill="white"/>
<path d="M128.085 21.7874V12.8994H130.381V21.7874H128.085Z" fill="white"/>
<path d="M142.657 21.7874L140.283 18.7253C140.076 18.7379 139.856 18.7379 139.646 18.7379H138.179V21.7874H135.883V12.8994H140.205C141.944 12.8994 143.204 12.9777 144.058 13.6124C144.708 14.0929 145.004 14.7806 145.004 15.7668C145.004 16.8187 144.68 17.5065 143.98 17.9869C143.656 18.2196 143.252 18.3763 142.786 18.4674L145.434 21.79H142.657V21.7874ZM140.22 14.5986H138.182V17.1171H140.245C141.97 17.1171 142.673 16.8971 142.673 15.8325C142.673 14.677 141.737 14.5986 140.22 14.5986Z" fill="white"/>
<path d="M52.229 17.3699H49.397L53.3391 21.8279H56.1812L52.229 17.3699Z" fill="white"/>
<path d="M52.229 17.375H49.397L53.3391 12.9171H56.1812L52.229 17.375Z" fill="white"/>
<path d="M49.296 12.9398H47V21.8279H49.296V12.9398Z" fill="white"/>
<defs>
<linearGradient id="paint0_linear_59_2059" x1="-16.4155" y1="55.3124" x2="53.3705" y2="0.706862" gradientUnits="userSpaceOnUse">
<stop offset="0.395" stop-color="#2ABDBB"/>
<stop offset="0.91" stop-color="#232B65"/>
</linearGradient>
<linearGradient id="paint1_linear_59_2059" x1="-16.4155" y1="55.3124" x2="53.3705" y2="0.706862" gradientUnits="userSpaceOnUse">
<stop offset="0.25" stop-color="#2ABDBB"/>
<stop offset="0.91" stop-color="#232B65"/>
</linearGradient>
<clipPath id="clip0_59_2059">
<rect width="44" height="34" fill="white" transform="translate(0 0.343384)"/>
</clipPath>
</defs>
</svg>
