<svg width="27" height="27" viewBox="0 0 27 27" fill="none" xmlns="http://www.w3.org/2000/svg">
<path d="M13.8499 0.343384H13.7899C6.52775 0.343384 0.640625 6.2305 0.640625 13.4926V13.5526C0.640625 20.8148 6.52775 26.7019 13.7899 26.7019H13.8499C21.112 26.7019 26.9991 20.8148 26.9991 13.5526V13.4926C26.9991 6.2305 21.112 0.343384 13.8499 0.343384Z" fill="#011724"/>
<path d="M7.1035 9.75164C6.78784 9.45865 6.63086 9.09598 6.63086 8.66447C6.63086 8.23296 6.78868 7.85434 7.1035 7.56051C7.41915 7.26752 7.82548 7.12061 8.32331 7.12061C8.82114 7.12061 9.21152 7.26752 9.52634 7.56051C9.842 7.8535 9.99898 8.22205 9.99898 8.66447C9.99898 9.1069 9.84116 9.45865 9.52634 9.75164C9.21069 10.0446 8.81023 10.1915 8.32331 10.1915C7.83639 10.1915 7.41915 10.0446 7.1035 9.75164ZM9.7337 11.4324V20.4152H6.8953V11.4324H9.7337Z" fill="#FEFFFC"/>
<path d="M19.1835 12.3198C19.8022 12.9914 20.1112 13.9132 20.1112 15.0868V20.2566H17.4155V15.4512C17.4155 14.8593 17.2619 14.3993 16.9554 14.0719C16.649 13.7445 16.236 13.5799 15.7188 13.5799C15.2017 13.5799 14.7886 13.7436 14.4822 14.0719C14.1758 14.3993 14.0222 14.8593 14.0222 15.4512V20.2566H11.3105V11.4072H14.0222V12.5809C14.2967 12.1897 14.6669 11.8807 15.132 11.6532C15.5971 11.4257 16.1201 11.3124 16.7019 11.3124C17.7379 11.3124 18.5656 11.6482 19.1835 12.319V12.3198Z" fill="#FEFFFC"/>
</svg>
