<svg width="28" height="29" viewBox="0 0 28 29" fill="none" xmlns="http://www.w3.org/2000/svg">
<path d="M25.0381 5.77823C24.9333 5.69656 24.8113 5.63983 24.6813 5.61235C24.5513 5.58487 24.4167 5.58736 24.2878 5.61963L17.6017 7.29088L10.8916 3.93526C10.7046 3.84201 10.4904 3.81873 10.2878 3.86963L3.28781 5.61963C3.09852 5.66695 2.93047 5.77618 2.81037 5.92997C2.69028 6.08375 2.62503 6.27326 2.625 6.46838V22.2184C2.62502 22.3513 2.65534 22.4825 2.71366 22.602C2.77197 22.7215 2.85675 22.8261 2.96155 22.908C3.06636 22.9898 3.18843 23.0466 3.31849 23.0742C3.44856 23.1018 3.5832 23.0994 3.71219 23.0671L10.3983 21.3959L17.1084 24.7515C17.2303 24.8116 17.3642 24.843 17.5 24.8434C17.5715 24.8433 17.6428 24.8345 17.7122 24.8171L24.7122 23.0671C24.9015 23.0198 25.0695 22.9106 25.1896 22.7568C25.3097 22.603 25.375 22.4135 25.375 22.2184V6.46838C25.375 6.3353 25.3447 6.20397 25.2863 6.08437C25.228 5.96478 25.1431 5.86007 25.0381 5.77823ZM11.375 6.1337L16.625 8.7587V22.5531L11.375 19.9281V6.1337ZM4.375 7.15198L9.625 5.83948V19.7848L4.375 21.0973V7.15198ZM23.625 21.5348L18.375 22.8473V8.90198L23.625 7.58948V21.5348Z" fill="#022841"/>
</svg>
