<svg width="28" height="29" viewBox="0 0 28 29" fill="none" xmlns="http://www.w3.org/2000/svg">
<path d="M25.375 11.7184C25.6071 11.7184 25.8296 11.6262 25.9937 11.4621C26.1578 11.298 26.25 11.0754 26.25 10.8434V7.34338C26.25 6.87925 26.0656 6.43414 25.7374 6.10595C25.4092 5.77776 24.9641 5.59338 24.5 5.59338H3.5C3.03587 5.59338 2.59075 5.77776 2.26256 6.10595C1.93437 6.43414 1.75 6.87925 1.75 7.34338V10.8434C1.75 11.0754 1.84219 11.298 2.00628 11.4621C2.17038 11.6262 2.39294 11.7184 2.625 11.7184C3.32119 11.7184 3.98887 11.9949 4.48116 12.4872C4.97344 12.9795 5.25 13.6472 5.25 14.3434C5.25 15.0396 4.97344 15.7073 4.48116 16.1995C3.98887 16.6918 3.32119 16.9684 2.625 16.9684C2.39294 16.9684 2.17038 17.0606 2.00628 17.2247C1.84219 17.3888 1.75 17.6113 1.75 17.8434V21.3434C1.75 21.8075 1.93437 22.2526 2.26256 22.5808C2.59075 22.909 3.03587 23.0934 3.5 23.0934H24.5C24.9641 23.0934 25.4092 22.909 25.7374 22.5808C26.0656 22.2526 26.25 21.8075 26.25 21.3434V17.8434C26.25 17.6113 26.1578 17.3888 25.9937 17.2247C25.8296 17.0606 25.6071 16.9684 25.375 16.9684C24.6788 16.9684 24.0111 16.6918 23.5188 16.1995C23.0266 15.7073 22.75 15.0396 22.75 14.3434C22.75 13.6472 23.0266 12.9795 23.5188 12.4872C24.0111 11.9949 24.6788 11.7184 25.375 11.7184ZM3.5 18.6309C4.489 18.4301 5.37817 17.8935 6.01683 17.1121C6.6555 16.3307 7.00439 15.3526 7.00439 14.3434C7.00439 13.3342 6.6555 12.356 6.01683 11.5747C5.37817 10.7933 4.489 10.2567 3.5 10.0559V7.34338H9.625V21.3434H3.5V18.6309ZM24.5 18.6309V21.3434H11.375V7.34338H24.5V10.0559C23.511 10.2567 22.6218 10.7933 21.9832 11.5747C21.3445 12.356 20.9956 13.3342 20.9956 14.3434C20.9956 15.3526 21.3445 16.3307 21.9832 17.1121C22.6218 17.8935 23.511 18.4301 24.5 18.6309Z" fill="#022841"/>
</svg>
