<svg width="27" height="27" viewBox="0 0 27 27" fill="none" xmlns="http://www.w3.org/2000/svg">
<path d="M13.7747 0.343384H13.7147C6.45254 0.343384 0.56543 6.2305 0.56543 13.4926V13.5526C0.56543 20.8148 6.45254 26.7019 13.7147 26.7019H13.7747C21.0368 26.7019 26.9239 20.8148 26.9239 13.5526V13.4926C26.9239 6.2305 21.0368 0.343384 13.7747 0.343384Z" fill="#011724"/>
<path d="M19.1268 10.299V12.5615C18.7314 12.5229 18.2176 12.4331 17.6493 12.2249C16.9071 11.9529 16.3547 11.5809 15.9929 11.293V15.8658L15.9837 15.8516C15.9895 15.9422 15.9929 16.0346 15.9929 16.1278C15.9929 18.3986 14.1451 20.2473 11.8734 20.2473C9.60168 20.2473 7.75391 18.3986 7.75391 16.1278C7.75391 13.8569 9.60168 12.0074 11.8734 12.0074C12.0959 12.0074 12.3142 12.0251 12.5274 12.0595V14.2892C12.3225 14.2162 12.1026 14.1767 11.8734 14.1767C10.798 14.1767 9.92237 15.0515 9.92237 16.1278C9.92237 17.204 10.798 18.0788 11.8734 18.0788C12.9488 18.0788 13.8244 17.2032 13.8244 16.1278C13.8244 16.0875 13.8236 16.0472 13.8211 16.0069V7.12061H16.0819C16.0903 7.31201 16.0978 7.50511 16.1062 7.69652C16.1214 8.07346 16.2557 8.43529 16.4899 8.73163C16.7644 9.08003 17.1699 9.48468 17.7391 9.80789C18.2722 10.1093 18.7725 10.2394 19.1268 10.3007V10.299Z" fill="white"/>
</svg>
