<svg width="28" height="27" viewBox="0 0 28 27" fill="none" xmlns="http://www.w3.org/2000/svg">
<path d="M27.2805 13.5231C27.2805 20.1794 22.3466 25.6824 15.937 26.5754C15.3377 26.6585 14.7245 26.7019 14.1021 26.7019C13.3837 26.7019 12.6782 26.6446 11.9912 26.5338C5.71645 25.5235 0.923828 20.0825 0.923828 13.5231C0.923828 6.24433 6.82457 0.343384 14.1031 0.343384C21.3816 0.343384 27.2823 6.24433 27.2823 13.5231H27.2805Z" fill="#011724"/>
<path d="M6.94946 7.12061L12.4749 14.5083L6.91504 20.5151H8.16671L13.0349 15.2563L16.9679 20.5151H21.2266L15.3905 12.7118L20.5659 7.12061H19.3142L14.8314 11.9638L11.209 7.12061H6.95029H6.94946ZM8.78961 8.04239H10.7456L19.3848 19.5933H17.4288L8.78961 8.04239Z" fill="white"/>
</svg>
