<svg width="27" height="27" viewBox="0 0 27 27" fill="none" xmlns="http://www.w3.org/2000/svg">
<path d="M26.6407 13.5226C26.6407 6.24393 20.7402 0.343384 13.4615 0.343384C6.18278 0.343384 0.282227 6.24393 0.282227 13.5226C0.282227 20.8013 6.18278 26.7019 13.4615 26.7019C20.7402 26.7019 26.6407 20.8013 26.6407 13.5226Z" fill="#011724"/>
<path d="M21.445 11.188C21.351 10.2779 21.1488 9.27179 20.4043 8.74308C19.8278 8.33307 19.0699 8.31791 18.3624 8.31875C16.8668 8.31875 15.3704 8.32128 13.8748 8.32212C12.4363 8.32381 10.9978 8.32465 9.55932 8.32633C8.9584 8.32633 8.37427 8.28003 7.81616 8.54102C7.33694 8.76496 6.96179 9.19097 6.73602 9.66496C6.42298 10.3242 6.35752 11.0709 6.31975 11.8C6.25009 13.1277 6.25764 14.4588 6.34073 15.7856C6.402 16.7538 6.55726 17.8238 7.30337 18.441C7.96471 18.9874 8.89797 19.0143 9.75571 19.0151C12.4783 19.0177 15.2017 19.0202 17.9251 19.0219C18.2743 19.0227 18.6385 19.016 18.9944 18.9773C19.6943 18.9015 20.3615 18.7003 20.8114 18.18C21.2654 17.6555 21.3821 16.9255 21.4509 16.2343C21.6188 14.5573 21.6171 12.8642 21.445 11.188ZM12.3004 16.0213V11.3193L16.3591 13.6699L12.3004 16.0213Z" fill="white"/>
</svg>
